<svg xmlns="http://www.w3.org/2000/svg" width="246" height="44" viewBox="0 0 246 44" role="img" aria-labelledby="title desc">
<title id="title">Futtasd a sandboxban</title>
<desc id="desc">Futtasd a sandboxban a kassza weboldalán.</desc>
<defs><path id="t0" d="M210 0L80 0L80-710L555-710L555-597L139-597L210-670L210-344L139-403L537-403L537-291L139-291L210-350"/><path id="t1" d="M246 12Q165 12 118-41Q70-95 70-190L70-534L198-534L198-222Q198-155 221-123Q243-92 289-92Q341-92 370-126Q398-161 398-227L398-534L526-534L526 0L409 0L406-147L422-142Q410-66 365-27Q320 12 246 12"/><path id="t2" d="M398 0L284 0Q204 0 167-37Q129-74 129-153L129-659L257-659L257-165Q257-128 273-113Q289-99 323-99L398-99L398 0M398-435L45-435L45-534L398-534"/><path id="t3" d="M225 12Q141 12 90-26Q39-65 39-134Q39-203 82-242Q125-281 213-298L390-333Q390-390 364-418Q338-447 287-447Q241-447 215-425Q188-404 178-364L48-370Q64-455 126-500Q188-546 287-546Q401-546 460-488Q518-431 518-324L518-130Q518-109 526-101Q533-93 548-93L565-93L565 0Q559 2 546 3Q532 4 518 4Q485 4 459-6Q433-17 419-43Q405-70 405-116L416-108Q408-73 382-45Q355-18 315-3Q275 12 225 12M251-81Q294-81 325-98Q356-115 373-145Q390-175 390-216L390-246L252-218Q209-209 191-191Q172-174 172-146Q172-115 193-98Q213-81 251-81"/><path id="t4" d="M287 12Q206 12 153-11Q99-34 71-75Q43-116 39-168L170-174Q177-132 204-109Q231-86 288-86Q333-86 357-100Q380-115 380-146Q380-164 372-176Q363-188 339-197Q314-206 267-215Q186-229 140-249Q94-270 76-301Q57-332 57-378Q57-453 115-499Q172-546 283-546Q360-546 410-521Q459-497 485-456Q510-416 514-366L384-360Q383-385 372-405Q361-425 339-436Q317-448 281-448Q236-448 213-430Q189-412 189-382Q189-361 199-347Q208-333 231-324Q254-316 294-309Q376-297 424-276Q472-255 493-223Q513-192 513-148Q513-71 452-29Q390 12 287 12"/><path id="t5" d="M260 12Q192 12 143-22Q93-56 66-119Q39-182 39-267Q39-352 66-415Q93-478 143-512Q193-546 260-546Q316-546 359-523Q401-500 423-458L423-710L551-710L551 0L429 0L426-79Q404-36 360-12Q316 12 260 12M299-92Q339-92 367-112Q394-132 409-171Q423-211 423-267Q423-324 409-363Q394-402 367-422Q339-442 299-442Q241-442 207-395Q172-349 172-267Q172-187 207-139Q241-92 299-92"/><path id="t7" d="M198 0L70 0L70-534L186-534L191-384L176-390Q184-446 209-480Q234-514 270-530Q306-546 349-546Q408-546 449-520Q489-494 510-448Q531-403 531-343L531 0L403 0L403-302Q403-347 394-378Q385-409 365-425Q344-442 310-442Q259-442 229-406Q198-370 198-302"/><path id="t8" d="M357 12Q301 12 260-12Q218-36 195-79L192 0L70 0L70-710L198-710L198-458Q220-495 261-520Q302-546 357-546Q426-546 477-511Q527-477 555-414Q582-352 582-267Q582-182 555-119Q527-57 477-22Q426 12 357 12M328-92Q383-92 416-138Q449-185 449-267Q449-350 417-396Q384-442 329-442Q288-442 259-421Q229-401 214-362Q198-323 198-267Q198-213 214-173Q229-134 258-113Q287-92 328-92"/><path id="t9" d="M302 12Q223 12 164-22Q104-57 72-120Q39-183 39-267Q39-352 72-414Q104-477 164-511Q223-546 302-546Q381-546 440-511Q499-477 532-414Q564-352 564-267Q564-183 532-120Q499-57 440-22Q381 12 302 12M302-92Q364-92 398-138Q431-184 431-267Q431-349 398-395Q364-442 302-442Q240-442 206-395Q172-349 172-267Q172-184 206-138Q240-92 302-92"/><path id="ta" d="M188 0L46 0L238-272L53-534L192-534L314-352L434-534L575-534L391-271L582 0L443 0L316-192"/></defs>
<rect x="1" y="3.5" width="244" height="40" rx="20" fill="#032e15"/><rect x="1" y="1" width="244" height="40" rx="20" fill="#0d542b" stroke="#0d542b"/><path d="M8 5.6v12.8a.9.9 0 0 0 1.4.8l10-6.4a.9.9 0 0 0 0-1.6l-10-6.4A.9.9 0 0 0 8 5.6z" transform="translate(17 12) scale(0.75)" fill="#fdfcf6" stroke="none" stroke-width="2.667" stroke-linecap="round" stroke-linejoin="round"/><g transform="translate(44 26.3) scale(0.015)" fill="#fdfcf6"><use href="#t0" x="0"/><use href="#t1" x="570"/><use href="#t2" x="1144"/><use href="#t2" x="1541"/><use href="#t3" x="1960"/><use href="#t4" x="2532"/><use href="#t5" x="3075"/><use href="#t3" x="3932"/><use href="#t4" x="4748"/><use href="#t3" x="5299"/><use href="#t7" x="5877"/><use href="#t5" x="6465"/><use href="#t8" x="7070"/><use href="#t9" x="7681"/><use href="#ta" x="8225"/><use href="#t8" x="8803"/><use href="#t3" x="9422"/><use href="#t7" x="10000"/></g><path d="M5 12h14M13 6l6 6-6 6" transform="translate(213.01 13.5) scale(0.625)" fill="none" stroke="#fdfcf6" stroke-width="3.52" stroke-linecap="round" stroke-linejoin="round"/>
</svg>
